<?xml version="1.0" encoding="UTF-8" standalone="no"?><!DOCTYPE svg PUBLIC "-//W3C//DTD SVG 1.1//EN" "http://www.w3.org/Graphics/SVG/1.1/DTD/svg11.dtd"><svg width="100%" height="100%" viewBox="0 0 189 201" version="1.1" xmlns="http://www.w3.org/2000/svg" xmlns:xlink="http://www.w3.org/1999/xlink" xml:space="preserve" xmlns:serif="http://www.serif.com/" style="fill-rule:evenodd;clip-rule:evenodd;stroke-linejoin:round;stroke-miterlimit:1.41421;"><g><g id="V1"><path id="Trimmed" d="M60.023,87.458c-24.277,-2.819 -42.235,-12.756 -42.235,-24.567c0,-14.001 25.232,-25.368 56.311,-25.368c31.08,0 56.312,11.367 56.312,25.368l0,0.019l-69.825,14.481c-0.317,3.823 -0.496,7.166 -0.563,10.067Z" style="fill:#450100;"/><path id="Trimmed1" serif:id="Trimmed" d="M62.338,103.762c-0.677,2.8 -1.002,4.981 -1.895,6.509c-1.851,3.168 -6.835,1.58 -12.819,2.872c-5.576,1.204 -10.911,3.887 -10.663,4.824c0.474,1.787 4.597,5.259 7.183,9.102c2.743,4.078 4.372,8.152 4.415,9.758c0.102,3.798 -2.865,7.6 -3.902,8.976c-2.436,3.233 -5.889,5.05 -7.772,5.588c-4.688,1.341 -11.016,0.312 -13.759,-0.318c-4.422,-1.015 -8.024,-3.284 -9.082,-3.958c-2.926,-1.865 -3.595,-4.615 -3.349,-5.658c0.547,-2.316 5.442,-5.546 10.698,-5.079c0.378,0.033 -3.072,1.05 -4.816,2.468c-0.769,0.625 -1.884,1.879 -1.724,3.026c0.166,1.197 1.645,2.291 2.617,3.033c2.455,1.873 7.537,2.942 8.496,2.906c5.322,-0.204 8.492,-0.605 11.39,-4.32c3.31,-4.246 -2.753,-12.942 -5.497,-14.902c-4.754,-3.394 -13.176,-4.333 -14.33,-4.543c-5.144,-0.936 -5.666,-5.476 -1.488,-10.124c1.817,-2.022 6.911,-3.997 12.997,-6.042c1.062,-0.357 10.599,-3.043 14.707,-6.857c2.634,-2.444 2.061,-6.262 -0.23,-7.681c-4.148,-2.57 -13.9,-5.782 -22.067,-10.56c-4.562,-2.67 -18.983,-9.505 -21.15,-16.953c-2.15,-7.389 7.925,-15.392 11.143,-17.954c9.742,-7.759 11.301,12.772 11.301,12.772c-0.888,0.989 31.829,22.231 35.463,22.406c0.733,0.036 1.386,0.199 1.966,0.472c-0.68,13.378 0.121,19.394 1.663,20.011c0.175,0.07 0.343,0.146 0.504,0.226Z" style="fill:#740806;"/><path id="Line" d="M60.718,78.426c-1.219,16.432 -0.505,23.626 1.192,24.305c4.266,1.707 4.007,8.189 3.554,11.427c-0.319,2.282 -9.914,16.184 -10.366,18.044c-0.806,3.315 9.191,4.446 10.378,4.509c1.058,0.056 -0.102,4.999 0.709,6.679c1.402,2.904 7.267,5.455 8.654,10.266c0,0 3.199,2.751 3.06,4.293c-0.158,1.755 -4.304,13.541 6.531,12.471c4.317,-0.426 17.307,-4.73 17.307,-4.73c3.06,12.552 3.073,22.602 -0.405,32.303c1.673,-4.287 34.555,-4.697 42.668,-1.65c0.027,0.732 0.056,1.465 0.086,2.199c0,0 -17.994,-2.845 -30.604,-2.293c-9.475,0.414 -14.473,4.321 -14.473,4.067c3.478,-9.701 4.759,-20.36 1.699,-32.912c0,0 -14.263,5.388 -18.601,5.339c-3.855,-0.044 -5.776,-2.754 -7.168,-4.942c-1.263,-1.987 0.781,-5.823 0.637,-7.529c-0.13,-1.542 -3.06,-4.293 -3.06,-4.293l-0.302,-6.369l-7.559,-5.483c0,0 0.507,-5.513 -0.551,-5.569c-1.186,-0.063 -10.441,-2.549 -10.854,-5.936c-0.35,-2.868 4.957,-8.984 8.261,-13.661c1.184,-1.676 2.216,-3.331 2.455,-4.503c0.628,-3.08 0.648,-7.982 -3.618,-9.689c-1.76,-0.704 -3.282,-8.11 -1.806,-25.892l2.176,-0.451Z"/><ellipse id="Iris" cx="80.492" cy="109.552" rx="2.527" ry="4.125" style="fill:#00844f;"/><path id="Lower-Lid" serif:id="Lower Lid" d="M78.964,112.883c2.582,2.254 9.344,-3.914 13.638,-7.526l3.415,-1.202c-4.742,3.58 -11.273,8.345 -16.24,11.589c-1.783,-0.964 -2.151,-1.918 -0.813,-2.861" style="fill:#010101;"/><path id="Upper-lid" serif:id="Upper lid" d="M77.429,108.484c-2.849,-3.171 4.571,-3.745 14.334,-2.573l9.972,-4.003c0,0 -9.805,2.721 -10.941,2.529c-7.969,-1.343 -13.972,-0.967 -17.06,1.466c-0.139,0.109 -4.589,-0.067 -4.719,0.05c-0.177,0.159 3.97,0.615 3.809,0.788c-0.126,0.134 -0.246,0.273 -0.361,0.416l4.966,1.327Z" style="fill:#010101;"/><path id="Lips" d="M64.183,144.045c1.754,-0.063 14.077,3.961 15.377,5.925c0.472,0.712 -4.986,5.443 -6.754,6.246c-1.32,0.6 -2.868,0.349 -3.853,-1.427c-0.591,-1.066 0.657,-3.332 0.496,-4.151c-0.095,-0.482 -2.04,-0.838 -3.144,-1.943c-1.779,-1.781 -3.204,-4.612 -2.122,-4.65Z" style="fill:#500500;"/><path id="In-front-of-face" serif:id="In front of face" d="M22.742,60.647c0,0 33.157,20.561 47.875,25.852c15.142,5.443 38.103,3.708 46.276,7.342c4.926,2.19 5.013,12.116 2.226,16.154c-3.315,4.802 -17.365,10.117 -21.848,14.088c-1.588,1.406 -4.788,5.861 -4.422,10.3c0.333,4.037 5.618,8.342 6.83,9.058c2.608,1.54 7.993,1.531 11.928,1.496c3.936,-0.036 7.953,-1.345 11.686,-1.709c3.559,-0.347 7.851,-0.268 10.86,-0.188c1.3,0.035 9.094,0.181 16.157,2.229c9.608,2.786 17.303,8.088 16.942,14.138c-0.227,3.8 -6.773,10.086 -12.98,11.217c-8.348,1.521 -16.648,-3.896 -17.159,-3.092c0,0 0.359,5.502 13.917,7.597c6.287,0.971 14.32,-1.278 18.924,-3.5c2.988,-1.441 16.669,-10.674 18.092,-21.614c2.363,-18.166 -11.336,-23.884 -13.444,-24.889c-3.841,-1.83 -7.553,-1.2 -7.553,-1.2c0,0 6.325,-16.457 10.229,-32.903c0.558,-2.353 9.01,-44.329 -0.91,-65.285c-9.321,-19.688 -20.873,-27.315 -40.783,-25.471c-2.165,0.2 -6.48,0.589 -6.375,1.376c0.105,0.786 5.169,1.522 7.005,3.345c2.456,2.439 10.715,9.321 7.735,11.29c-2.979,1.969 -20.763,1.775 -25.612,0.523c-2.826,-0.73 -1.743,-7.99 -3.48,-8.037c-1.738,-0.046 -3.566,6.959 -6.942,7.759c-13.252,3.141 -34.493,3.451 -57.484,12.792c-13.648,5.545 -29.249,10.801 -38.991,18.56c-3.218,2.562 -13.293,10.565 -11.143,17.954c2.167,7.448 21.556,-4.193 22.444,-5.182Z" style="fill:#740806;"/></g></g></svg>