<?xml version="1.0" encoding="UTF-8" standalone="no"?><!DOCTYPE svg PUBLIC "-//W3C//DTD SVG 1.1//EN" "http://www.w3.org/Graphics/SVG/1.1/DTD/svg11.dtd"><svg width="100%" height="100%" viewBox="0 0 329 376" version="1.1" xmlns="http://www.w3.org/2000/svg" xmlns:xlink="http://www.w3.org/1999/xlink" xml:space="preserve" xmlns:serif="http://www.serif.com/" style="fill-rule:evenodd;clip-rule:evenodd;stroke-linejoin:round;stroke-miterlimit:1.41421;"><g><path d="M67.174,256.482c6.614,-4.088 14.664,-3.068 17.967,2.276c3.302,5.344 0.613,13 -6,17.087c-6.614,4.088 -14.665,3.068 -17.967,-2.276c-3.302,-5.343 -0.614,-13 6,-17.087Zm0.543,2.864c5.175,-3.198 11.475,-2.4 14.059,1.781c2.584,4.182 0.48,10.173 -4.695,13.372c-5.176,3.198 -11.476,2.4 -14.06,-1.782c-2.584,-4.181 -0.48,-10.173 4.696,-13.371Z" style="fill:#ff8c45;"/><path d="M39.626,321.896c-34.403,-19.902 -34.23,-56.208 -21.15,-104.564c116.197,-4.125 178.762,-37.715 189.333,-133.732c-27.434,90.672 -63.103,111.557 -198.147,122.159c-18.924,63.025 -10.619,104.102 29.964,116.137Z" style="fill:#ff8c45;"/><path d="M249.184,201.414c-2.945,-0.027 -6.001,-0.331 -9.102,-0.939c-17.908,-3.512 -30.589,-15.838 -28.301,-27.509c2.289,-11.671 18.686,-18.295 36.594,-14.784c2.306,0.453 4.526,1.051 6.638,1.775c-14.062,-0.127 -25.6,6.073 -27.492,15.723c-1.994,10.168 7.375,20.833 21.663,25.734Z" style="fill:#ff8c45;"/><path d="M220.786,59.328c21.269,21.715 43.906,48.035 63.276,78.636c1.361,58.296 12.749,86.749 29.012,101.339c-25.14,26.616 -28.902,56.786 -17.782,74.681c-1.985,-31.561 4.898,-54.788 26.728,-74.149c-19.115,-30.845 -21.633,-36.217 -25.832,-107.236c-24.471,-30.665 -42.413,-47.804 -75.402,-73.271Z" style="fill:#ff8c45;"/><path d="M276.943,97.152c-7.431,-46.934 -35.676,-86.712 -149.255,-97.152c4.95,10.684 17.537,16.05 25.973,20.13c24.088,11.651 43.339,27.199 53.023,41.004c3.757,-11.053 -13.378,-27.58 -43.086,-45.857c54.662,0.629 89.88,31.499 113.345,81.875Z" style="fill:#ff8c45;"/><path d="M73.045,91.47c-0.582,-0.553 -1.503,-0.53 -2.056,0.052l-21.385,22.499c-0.553,0.581 -0.53,1.503 0.052,2.055l12.215,11.611c0.088,0.084 0.321,-0.207 0.257,-0.56c-0.361,-1.982 -2.923,-9.562 -2.454,-10.056l14.828,-15.6c0.423,-0.445 8.663,1.461 10.383,1.774c0.207,0.038 0.384,-0.156 0.375,-0.165l-12.215,-11.61Z" style="fill:#ff8c45;"/><path d="M38.678,143.736c-0.789,-0.144 -1.547,0.381 -1.691,1.17l-5.565,30.538c-0.144,0.79 0.38,1.547 1.17,1.691l16.579,3.022c0.12,0.021 0.156,-0.349 -0.092,-0.61c-1.387,-1.46 -7.684,-6.398 -7.561,-7.068l3.858,-21.173c0.11,-0.605 8.048,-3.525 9.659,-4.205c0.193,-0.082 0.235,-0.341 0.223,-0.343l-16.58,-3.022Z" style="fill:#ff8c45;"/><path d="M122.473,67.71c-0.269,-0.756 -1.101,-1.151 -1.858,-0.882l-29.24,10.418c-0.756,0.269 -1.151,1.102 -0.882,1.858l5.656,15.875c0.041,0.114 0.38,-0.039 0.482,-0.384c0.574,-1.931 1.71,-9.852 2.352,-10.08l20.274,-7.223c0.579,-0.207 7.07,5.215 8.464,6.271c0.167,0.127 0.412,0.034 0.408,0.022l-5.656,-15.875Z" style="fill:#ff8c45;"/><path d="M183.519,70.872c0.135,-0.791 -0.399,-1.543 -1.19,-1.677l-30.603,-5.196c-0.791,-0.134 -1.543,0.399 -1.677,1.191l-2.821,16.614c-0.02,0.12 0.351,0.152 0.608,-0.099c1.444,-1.405 6.305,-7.761 6.977,-7.647l21.218,3.603c0.606,0.103 3.622,8.004 4.322,9.607c0.084,0.193 0.343,0.231 0.345,0.219l2.821,-16.615Z" style="fill:#ff8c45;"/><path d="M129.953,168.828c-2.537,-4.252 -19.249,-23.175 -20.056,-23.105l-3.436,3.269c-0.509,0.558 17.188,18.53 21.62,21.616c0.542,0.377 1.657,0.492 1.969,0.195c0.312,-0.297 0.241,-1.409 -0.097,-1.975Z" style="fill:#ff8c45;"/><path d="M147.71,153.841c-0.773,-4.89 -9.249,-28.671 -10.024,-28.906l-4.406,1.756c-0.679,0.33 9.064,23.594 12.031,28.107c0.362,0.551 1.355,1.073 1.755,0.913c0.4,-0.159 0.747,-1.219 0.644,-1.87Z" style="fill:#ff8c45;"/><path d="M118.09,179.503c-3.49,-3.512 -24.281,-17.833 -25.047,-17.57l-2.544,4.003c-0.359,0.665 21.159,13.825 26.205,15.747c0.616,0.235 1.727,0.077 1.958,-0.286c0.231,-0.364 -0.108,-1.426 -0.572,-1.894Z" style="fill:#ff8c45;"/><path d="M163.149,147.837c0.98,-4.127 1.324,-25.554 0.679,-25.965l-4.741,0.13c-0.751,0.066 0.273,21.448 1.48,25.906c0.148,0.544 0.896,1.247 1.326,1.235c0.431,-0.012 1.126,-0.757 1.256,-1.306Z" style="fill:#ff8c45;"/><path d="M87.246,187.452c-0.315,1.512 -1.014,1.086 -1.014,-0.687c0,-36.7 29.796,-66.495 66.495,-66.495c9.009,0 17.602,1.795 25.44,5.047c1.601,0.665 1.246,1.445 -0.513,1.166c-4.158,-0.66 -8.423,-1.003 -12.769,-1.003c-38.295,0 -70.28,26.629 -77.639,61.972Z" style="fill:#ff8c45;"/><path d="M92.628,245.988c0,0 1.4,5.811 1.613,14.846c0.154,6.535 -1.627,17.724 -1.017,18.746c1.452,2.436 13.591,10.436 31.351,20.431c15.17,8.539 34.702,14.931 45.814,18.439c21.821,6.891 51.822,5.587 68.45,5.245c7.096,-0.146 17.458,-2.262 28.215,-3.054c18.303,-1.348 35.684,-1.208 36.969,-1.594c1.284,-0.386 4.828,-5.656 8.754,-12.14c3.602,-5.951 5.785,-13.343 6.162,-12.536c1.54,3.286 2.825,49.785 1.812,60.974c-0.3,3.322 -4.558,5.911 -7.885,6.163c-13.034,0.988 -46.394,1.073 -70.322,-0.235c-24.059,-1.316 -78.588,-6.341 -122.953,-9.663c-35.355,-2.648 -64.555,-3.853 -64.555,-3.853l-0.8,-90.989c0.366,-4.058 7.565,-7.579 20.653,-9.091c4.852,-0.56 11.825,-2.033 15.33,-4.087c1.539,-0.902 1.008,-1.542 -0.705,-1.772c-21.498,-2.879 -38.455,5.63 -40.235,14.38c0,0 -4.075,98.263 -2.076,100.181c1.998,1.917 82.161,7.271 117.35,10.385c31.262,2.766 66.593,7.444 93.787,8.298c24.075,0.756 62.399,-3.869 69.419,-11.63c0.868,-0.959 3.487,-78.63 -6.533,-77.344c-1.698,0.217 -20.92,23.521 -21.918,24.114c-0.515,0.306 -17.586,-0.144 -40.62,0.47c-11.493,0.306 -24.493,0.929 -37.334,1.282c-11.265,0.309 -22.408,0.41 -32.306,-0.092c-28.343,-1.438 -37.906,-8.401 -46.983,-12.27c-15.156,-6.459 -42.815,-24.389 -42.815,-24.389c1.526,-15.517 0.333,-25.497 -6.622,-29.215Z" style="fill:#ff8c45;"/><path d="M60.457,182.286c-0.78,3.819 -2.612,3.351 -2.612,-0.888c0,-49.117 39.724,-88.993 88.653,-88.993c11.125,0 21.775,2.062 31.589,5.825c3.768,1.445 3.571,3.498 -0.116,2.977c-30.31,-4.282 -61.003,3.338 -84.518,23.787c-17.503,15.22 -28.519,35.364 -32.996,57.292Z" style="fill:#ff8c45;"/></g></svg>